<?xml version="1.0" standalone="no"?>
<!DOCTYPE svg PUBLIC "-//W3C//DTD SVG 20010904//EN"
 "http://www.w3.org/TR/2001/REC-SVG-20010904/DTD/svg10.dtd">
<svg version="1.0" xmlns="http://www.w3.org/2000/svg"
 width="1500.000000pt" height="1500.000000pt" viewBox="0 0 1500.000000 1500.000000"
 preserveAspectRatio="xMidYMid meet">

<g transform="translate(0.000000,1500.000000) scale(0.100000,-0.100000)"
fill="#000000" stroke="none">
<path d="M7125 11339 c-599 -64 -1126 -238 -1617 -535 -498 -301 -951 -745
-1265 -1239 -296 -466 -489 -996 -569 -1565 -25 -179 -31 -696 -10 -891 82
-756 359 -1433 819 -2007 584 -728 1402 -1222 2294 -1387 227 -42 369 -56 620
-62 349 -8 634 19 958 91 1134 254 2104 1029 2615 2089 206 429 319 835 365
1311 111 1167 -325 2335 -1173 3144 -627 596 -1405 957 -2262 1047 -156 16
-634 19 -775 4z m819 -124 c1546 -190 2823 -1324 3186 -2830 168 -696 141
-1386 -79 -2052 -275 -832 -836 -1545 -1574 -2004 -572 -356 -1189 -543 -1867
-565 -894 -30 -1777 271 -2480 845 -153 125 -394 364 -513 510 -462 562 -730
1181 -829 1916 -19 133 -22 210 -23 460 0 188 5 339 13 405 57 457 162 824
347 1206 196 407 414 716 724 1025 242 241 398 367 663 535 501 317 1114 520
1708 564 165 12 572 4 724 -15z"/>
<path d="M6605 9324 c-142 -10 -292 -28 -395 -45 -63 -11 -144 -25 -179 -30
-101 -15 -141 -49 -141 -119 0 -67 37 -100 113 -100 l30 0 -6 -72 c-29 -335
-34 -1435 -8 -1898 5 -96 15 -299 21 -450 6 -151 13 -322 16 -378 l6 -104 35
-14 c61 -26 215 -63 333 -80 158 -23 507 -15 704 15 591 92 1224 335 1626 624
178 129 320 290 370 424 46 120 28 245 -50 341 -33 42 -138 124 -210 165 -209
120 -654 223 -1128 262 -108 9 -223 19 -256 23 l-59 7 159 64 c377 152 649
319 794 486 112 130 136 261 68 375 -147 244 -550 414 -1134 479 -168 19 -591
33 -709 25z m705 -324 c475 -36 741 -148 758 -318 6 -67 -11 -112 -63 -170
-125 -138 -418 -284 -800 -397 -294 -87 -543 -135 -772 -151 l-103 -7 1 39 c0
22 10 240 23 486 16 316 26 451 35 462 17 20 95 45 173 55 92 12 591 13 748 1z
m690 -1394 c303 -41 553 -142 640 -259 40 -55 64 -137 56 -195 -23 -169 -244
-348 -600 -487 -362 -141 -753 -224 -1301 -275 -236 -21 -305 -24 -305 -12 0
4 -25 254 -56 555 -31 301 -54 551 -50 554 10 10 238 52 456 83 177 25 274 35
500 54 102 9 551 -4 660 -18z"/>
<path d="M6541 4383 c10 -16 7 -39 -16 -123 -35 -133 -41 -150 -60 -150 -8 0
-15 -4 -15 -9 0 -10 69 -25 78 -17 3 3 0 6 -6 6 -7 0 -12 10 -12 23 1 37 57
233 63 217 3 -8 15 -60 27 -115 25 -121 29 -135 39 -135 4 0 46 45 92 99 46
55 85 98 87 97 3 -4 -56 -225 -64 -238 -3 -4 -13 -8 -22 -9 -22 -1 57 -27 83
-27 11 0 14 2 8 5 -19 7 -16 35 18 165 21 78 36 118 45 118 27 0 13 18 -18 24
-36 7 -40 4 -154 -128 l-50 -59 -27 123 c-15 68 -30 127 -34 131 -5 4 -23 10
-41 14 -31 6 -33 6 -21 -12z"/>
<path d="M8428 4393 c-21 -5 -24 -23 -5 -23 12 0 67 -166 67 -200 0 -6 -53 30
-118 80 -107 82 -121 90 -150 84 -35 -7 -42 -19 -14 -26 12 -4 26 -38 51 -131
30 -109 32 -128 20 -143 -12 -15 -11 -16 21 -9 39 8 64 25 38 25 -9 0 -20 4
-23 10 -8 13 -64 214 -60 218 1 2 59 -40 128 -93 115 -87 147 -106 147 -88 0
3 -16 65 -36 137 -28 102 -34 134 -25 148 12 19 0 22 -41 11z"/>
<path d="M8025 4296 c-85 -17 -106 -24 -93 -32 24 -13 70 -275 51 -281 -7 -3
-13 -8 -13 -12 0 -6 229 26 236 33 1 1 4 17 8 36 l6 35 -22 -28 c-23 -28 -74
-46 -130 -47 -24 0 -27 4 -36 58 -6 31 -7 61 -2 66 16 16 101 20 111 5 6 -10
9 -5 9 16 0 40 -15 64 -22 37 -4 -15 -17 -22 -53 -27 -26 -4 -51 -3 -56 2 -5
5 -10 34 -12 64 l-2 54 57 9 c47 7 61 6 82 -8 14 -9 26 -14 26 -12 0 11 -24
56 -29 55 -3 -1 -55 -11 -116 -23z"/>
<path d="M6994 4148 c-45 -76 -89 -138 -102 -144 l-23 -11 23 -7 c13 -3 36 -6
52 -6 28 0 29 1 10 14 -18 14 -18 17 -3 43 15 27 18 28 80 25 71 -3 86 -12 95
-60 5 -27 4 -32 -12 -32 -32 -1 6 -17 54 -23 45 -6 49 -3 29 18 -8 7 -26 58
-41 112 -51 184 -57 203 -70 203 -7 0 -48 -60 -92 -132z m95 -1 c10 -37 16
-69 13 -71 -7 -7 -95 5 -105 14 -5 4 -3 18 4 31 25 49 61 101 65 96 2 -2 13
-34 23 -70z"/>
<path d="M7299 4231 c-56 -56 -30 -110 81 -164 53 -26 66 -37 68 -58 7 -60
-72 -80 -127 -33 -17 14 -31 32 -31 40 0 16 -16 19 -25 4 -3 -5 -3 -21 1 -36
18 -73 197 -70 221 4 19 60 -3 89 -103 131 -60 26 -83 59 -66 95 22 48 108 34
133 -23 18 -41 29 -39 29 4 0 28 -5 37 -30 50 -16 8 -50 15 -75 15 -38 0 -52
-5 -76 -29z"/>
<path d="M7640 4251 c-28 -5 -31 -8 -14 -12 19 -6 22 -18 32 -140 10 -115 9
-136 -3 -145 -8 -6 -15 -13 -15 -15 0 -7 213 17 233 26 60 26 41 145 -23 145
-26 0 -25 8 5 32 33 26 35 80 3 102 -23 17 -145 20 -218 7z m173 -13 c26 -21
31 -61 9 -88 -15 -19 -29 -24 -68 -24 l-49 -1 -6 50 c-8 59 5 75 61 75 20 0
44 -6 53 -12z m6 -139 c53 -19 66 -75 26 -114 -19 -20 -34 -25 -73 -25 -58 0
-62 6 -62 85 0 33 5 55 13 58 22 9 63 7 96 -4z"/>
</g>
</svg>
